<?xml version="1.0" encoding="utf-8"?>
<!-- Generator: Adobe Illustrator 23.0.2, SVG Export Plug-In . SVG Version: 6.00 Build 0)  -->
<svg version="1.1" id="Layer_1" xmlns="http://www.w3.org/2000/svg" xmlns:xlink="http://www.w3.org/1999/xlink" x="0px" y="0px"
	 viewBox="0 0 76.1 38.6" style="enable-background:new 0 0 76.1 38.6;" xml:space="preserve">
<style type="text/css">
	.st0{fill:none;}
	.st1{filter:url(#Adobe_OpacityMaskFilter);}
	.st2{fill-rule:evenodd;clip-rule:evenodd;fill:#FFFFFF;}
	.st3{mask:url(#mask-2_2_);}
	.st4{fill-rule:evenodd;clip-rule:evenodd;fill:url(#SVGID_1_);fill-opacity:0.1;}
	.st5{fill-rule:evenodd;clip-rule:evenodd;fill:#6D6E71;}
	.st6{fill-rule:evenodd;clip-rule:evenodd;fill:#5E95FA;}
	.st7{filter:url(#Adobe_OpacityMaskFilter_1_);}
	.st8{mask:url(#mask-7_2_);fill-rule:evenodd;clip-rule:evenodd;fill:#F08C52;}
	.st9{fill-rule:evenodd;clip-rule:evenodd;fill:#FA975E;}
	.st10{fill-rule:evenodd;clip-rule:evenodd;fill:#E5E5E5;}
	.st11{fill-rule:evenodd;clip-rule:evenodd;fill:url(#SVGID_2_);fill-opacity:0.1;}
	.st12{fill-rule:evenodd;clip-rule:evenodd;fill:#45474C;}
	.st13{fill-rule:evenodd;clip-rule:evenodd;fill:#3969C2;}
	.st14{filter:url(#Adobe_OpacityMaskFilter_2_);}
	.st15{mask:url(#mask-12_2_);fill-rule:evenodd;clip-rule:evenodd;fill:#DD6C5A;}
	.st16{fill-rule:evenodd;clip-rule:evenodd;fill:#F08C52;}
	.st17{fill-rule:evenodd;clip-rule:evenodd;fill:#ED7562;}
	.st18{fill-rule:evenodd;clip-rule:evenodd;fill:#F5CA54;}
	.st19{fill-rule:evenodd;clip-rule:evenodd;fill:#D54739;}
	.st20{fill-rule:evenodd;clip-rule:evenodd;fill:#F6BC4B;}
</style>
<pattern  x="-176.8" y="79.2" width="100.7" height="100.7" patternUnits="userSpaceOnUse" id="pattern-4" viewBox="0 -100.7 100.7 100.7" style="overflow:visible;">
	<g>
		<rect y="-100.7" class="st0" width="100.7" height="100.7"/>
		<g transform="scale(0.196709437,0.196709437)">
			
				<image style="overflow:visible;enable-background:new    ;" width="512" height="512" id="image-5_1_" xlink:href="62A678AA7B9BDDFE.jpg"  transform="matrix(0.1967 0 0 -0.1967 100.5698 -100.6903)">
			</image>
		</g>
	</g>
</pattern>
<pattern  x="-176.8" y="79.2" width="120.6" height="120.6" patternUnits="userSpaceOnUse" id="pattern-9" viewBox="0 -120.6 120.6 120.6" style="overflow:visible;">
	<g>
		<rect y="-120.6" class="st0" width="120.6" height="120.6"/>
		<g transform="scale(0.235564983,0.235564983)">
			
				<image style="overflow:visible;enable-background:new    ;" width="512" height="512" id="image-10_1_" xlink:href="62A678AA7B9BDDF9.jpg"  transform="matrix(0.2356 0 0 -0.2356 120.3953 -120.5844)">
			</image>
		</g>
	</g>
</pattern>
<title>Group 4</title>
<desc>Created with Sketch.</desc>
<g id="Redesign">
	<g id="Mobile" transform="translate(-120.000000, -158.000000)">
		
			<g id="Group-4" transform="translate(246.912038, 200.834599) rotate(-16.000000) translate(-246.912038, -200.834599) translate(114.912038, 160.834599)">
			
				<g id="Rocket" transform="translate(223.597980, 39.597980) rotate(-315.000000) translate(-223.597980, -39.597980) translate(195.597980, 11.597980)">
				<g id="Group-3" transform="translate(11.101322, -0.024916)">
					<g id="Clip-2">
					</g>
					<defs>
						<filter id="Adobe_OpacityMaskFilter" filterUnits="userSpaceOnUse" x="-150.8" y="80.5" width="38.1" height="44.2">
							<feColorMatrix  type="matrix" values="1 0 0 0 0  0 1 0 0 0  0 0 1 0 0  0 0 0 1 0"/>
						</filter>
					</defs>
					<mask maskUnits="userSpaceOnUse" x="-150.8" y="80.5" width="38.1" height="44.2" id="mask-2_2_">
						<g class="st1">
							<polygon id="path-1_2_" class="st2" points="-154.9,85.1 -110.1,85.1 -110.1,123.5 -154.9,123.5 							"/>
						</g>
					</mask>
					<g id="Fill-1" class="st3">
						<g>
							<path id="path-3" class="st2" d="M-110.1,85.1c-35.7,3.9-43.4,29.1-44.7,32.3c2.1,2.1,4.2,4.1,6.2,6.2
								C-135.8,110.7-123,97.9-110.1,85.1"/>
						</g>
						<g>
							
								<pattern  id="SVGID_1_" xlink:href="#pattern-4" patternTransform="matrix(0.8746 0.4848 0.4848 -0.8746 3242.4832 2533.1589)">
							</pattern>
							<path class="st4" d="M-110.1,85.1c-35.7,3.9-43.4,29.1-44.7,32.3c2.1,2.1,4.2,4.1,6.2,6.2C-135.8,110.7-123,97.9-110.1,85.1"
								/>
						</g>
					</g>
				</g>
				<path id="Fill-4" class="st5" d="M-120.3,106.3l9.6-9.6c-2.7-2.7-7-2.7-9.6,0C-122.9,99.3-122.9,103.6-120.3,106.3"/>
				<path id="Fill-6" class="st6" d="M-119.2,105.2l7.4-7.4c-2-2-5.4-2-7.4,0C-121.2,99.8-121.2,103.1-119.2,105.2"/>
				<g id="Group-10" transform="translate(43.665198, -0.024916)">
					<g id="Clip-9">
					</g>
					<defs>
						<filter id="Adobe_OpacityMaskFilter_1_" filterUnits="userSpaceOnUse" x="-151.9" y="81.7" width="7.4" height="12.4">
							<feColorMatrix  type="matrix" values="1 0 0 0 0  0 1 0 0 0  0 0 1 0 0  0 0 0 1 0"/>
						</filter>
					</defs>
					<mask maskUnits="userSpaceOnUse" x="-151.9" y="81.7" width="7.4" height="12.4" id="mask-7_2_">
						<g class="st7">
							<polygon id="path-6_2_" class="st2" points="-154.9,85.1 -142.7,85.1 -142.7,93.9 -154.9,93.9 							"/>
						</g>
					</mask>
					<path id="Fill-8" class="st8" d="M-142.7,85.1c-4.5,0.5-8.6,1.3-12.2,2.4c0.4,2.4,1.6,4.6,3.4,6.4L-142.7,85.1z"/>
				</g>
				<polygon id="Fill-11" class="st5" points="-137.5,123.5 -141.6,119.4 -144.5,120.5 -139.5,125.5 				"/>
				<path id="Fill-13" class="st9" d="M-133.5,100.6c-9.7,0.6-16.5,5.9-19.7,14.4c3.7-2.2,9.1-2.3,11.4-2.2
					C-140.3,109.5-137.8,105.1-133.5,100.6"/>
				<path id="Fill-15" class="st9" d="M-124.1,110.1L-124.1,110.1c-0.5-0.5-1.3-0.5-1.7,0l-15.3,17L-124.1,110.1z"/>
				<g id="Group-19" transform="translate(17.268722, -0.024916)">
					<g id="Fill-17">
						<g>
							<path id="path-8" class="st10" d="M-116.3,85.1c-3.9,35.6-29.1,43.3-32.3,44.7c-2.1-2.1-4.1-4.2-6.2-6.2
								C-142,110.7-129.2,97.9-116.3,85.1"/>
						</g>
						<g>
							
								<pattern  id="SVGID_2_" xlink:href="#pattern-9" patternTransform="matrix(0.8746 0.4848 0.4848 -0.8746 3328.5698 2500.9907)">
							</pattern>
							<path class="st11" d="M-116.3,85.1c-3.9,35.6-29.1,43.3-32.3,44.7c-2.1-2.1-4.1-4.2-6.2-6.2
								C-142,110.7-129.2,97.9-116.3,85.1"/>
						</g>
					</g>
				</g>
				<path id="Fill-20" class="st12" d="M-120.3,106.3l9.6-9.6c2.7,2.7,2.7,7,0,9.6C-113.3,108.9-117.7,108.9-120.3,106.3"/>
				<path id="Fill-22" class="st13" d="M-119.2,105.2l7.4-7.4c2.1,2,2.1,5.4,0,7.4C-113.8,107.2-117.2,107.2-119.2,105.2"/>
				<g id="Group-26" transform="translate(47.118943, -0.024916)">
					<g id="Clip-25">
					</g>
					<defs>
						<filter id="Adobe_OpacityMaskFilter_2_" filterUnits="userSpaceOnUse" x="-152" y="85.1" width="5.9" height="14.1">
							<feColorMatrix  type="matrix" values="1 0 0 0 0  0 1 0 0 0  0 0 1 0 0  0 0 0 1 0"/>
						</filter>
					</defs>
					<mask maskUnits="userSpaceOnUse" x="-152" y="85.1" width="5.9" height="14.1" id="mask-12_2_">
						<g class="st14">
							<polygon id="path-11_2_" class="st2" points="-155,85.1 -146.2,85.1 -146.2,97.3 -155,97.3 							"/>
						</g>
					</mask>
					<path id="Fill-24" class="st15" d="M-146.2,85.1c-0.5,4.5-1.3,8.5-2.4,12.2c-2.3-0.5-4.6-1.6-6.4-3.4L-146.2,85.1z"/>
				</g>
				<polygon id="Fill-27" class="st12" points="-137.5,123.5 -133.4,127.6 -134.5,130.5 -139.5,125.5 				"/>
				<path id="Fill-29" class="st9" d="M-114.7,119.5c-0.6,9.8-5.9,16.5-14.4,19.8c2.2-3.7,2.3-9.1,2.2-11.4
					C-123.6,126.3-119.1,123.7-114.7,119.5"/>
				<path id="Fill-31" class="st16" d="M-124.1,110.1L-124.1,110.1c0.5,0.5,0.5,1.3,0,1.7l-17,15.3L-124.1,110.1z"/>
				<path id="Fill-33" class="st17" d="M-155,141v-6.9c0-4.1,3.4-7.5,7.5-7.5c1.9,0,3.6,0.8,4.9,2L-155,141z"/>
				<path id="Fill-35" class="st18" d="M-144.9,130.9c-0.7-0.7-1.6-1.1-2.6-1.1c-2.4,0-4.3,2-4.3,4.4v3.7L-144.9,130.9z"/>
				<path id="Fill-37" class="st19" d="M-155,141h6.9c4.1,0,7.5-3.4,7.5-7.5c0-1.9-0.8-3.6-2-4.8L-155,141z"/>
				<path id="Fill-39" class="st20" d="M-144.9,130.9c0.7,0.7,1.1,1.6,1.1,2.6c0,2.4-2,4.4-4.3,4.4l-3.7,0L-144.9,130.9z"/>
			</g>
		</g>
	</g>
</g>
</svg>
