 <svg width="406px" height="56px" viewBox="0 0 406 56" version="1.1" xmlns="http://www.w3.org/2000/svg" xmlns:xlink="http://www.w3.org/1999/xlink">
        <defs>
            <path d="M17.56,27.4 C23.92,27.4 28.3,29.26 31.96,32.74 L27.4,38.08 C24.52,35.74 21.64,34.6 18.28,34.6 C14.86,34.6 12.7,36.04 12.7,38.68 C12.7,41.32 14.26,42.4 20.74,44.44 C28.6,46.96 33.1,50.2 33.1,57.88 C33.1,65.62 26.98,71.02 16.6,71.02 C9.4,71.02 4.24,68.38 0.82,65.08 L5.8,59.62 C8.86,62.2 12.16,63.7 16.3,63.7 C20.38,63.7 22.9,61.78 22.9,58.6 C22.9,55.54 21.34,54.16 15.28,52.3 C5.98,49.42 2.56,45.58 2.56,39.4 C2.56,32.08 8.92,27.4 17.56,27.4 Z M55.48,27.4 C60.88,27.4 64.66,29.02 68.14,31.96 L63.46,37.54 C61.12,35.74 58.78,34.66 55.96,34.66 C50.62,34.66 46.9,38.92 46.9,49.12 C46.9,59.14 50.56,63.4 56.08,63.4 C59.38,63.4 61.78,61.9 64.24,60.04 L68.62,65.68 C65.86,68.44 61.36,71.02 55.6,71.02 C44.2,71.02 36.58,63.34 36.58,49.12 C36.58,35.2 44.68,27.4 55.48,27.4 Z M95.32,70 L95.32,52.18 L82.84,52.18 L82.84,70 L73,70 L73,28.42 L82.84,28.42 L82.84,44.5 L95.32,44.5 L95.32,28.42 L105.16,28.42 L105.16,70 L95.32,70 Z M144.82,28.42 L144.82,56.2 C144.82,64.6 139.42,71.02 128.56,71.02 C117.7,71.02 112.36,64.96 112.36,56.2 L112.36,28.42 L122.2,28.42 L122.2,55.78 C122.2,61.12 124.12,63.7 128.56,63.7 C133.06,63.7 134.98,61.12 134.98,55.78 L134.98,28.42 L144.82,28.42 Z M174.16,47.98 C178.78,48.88 183.52,51.16 183.52,57.88 C183.52,67.36 175.84,70 165.4,70 L152.02,70 L152.02,28.42 L163.78,28.42 C174.94,28.42 181.78,31.24 181.78,39.04 C181.78,44.32 178,47.08 174.16,47.98 Z M164.74,35.38 L161.86,35.38 L161.86,45.04 L165.52,45.04 C169.6,45.04 171.76,43.48 171.76,40 C171.76,36.52 169.48,35.38 164.74,35.38 Z M165.46,62.86 C170.08,62.86 173.38,61.9 173.38,57.34 C173.38,53.14 170.44,51.58 166.18,51.58 L161.86,51.58 L161.86,62.86 L165.46,62.86 Z M211.24,70 L202.72,54.1 L198.88,54.1 L198.88,70 L189.04,70 L189.04,28.42 L202.66,28.42 C213.94,28.42 219.76,32.44 219.76,41.08 C219.76,46.54 217.18,49.84 211.78,52.3 L222.34,70 L211.24,70 Z M198.88,35.32 L198.88,47.32 L203.02,47.32 C207.34,47.32 209.62,45.46 209.62,41.08 C209.62,37.06 207.28,35.32 202.42,35.32 L198.88,35.32 Z M247.96,70 L245.8,61.06 L233.68,61.06 L231.58,70 L221.38,70 L233.92,28.42 L245.86,28.42 L258.4,70 L247.96,70 Z M235.36,53.92 L244.12,53.92 L239.74,35.56 L235.36,53.92 Z M271.3,28.42 L271.3,70 L261.46,70 L261.46,28.42 L271.3,28.42 Z M295.18,28.42 L281.92,47.08 L296.26,70 L284.86,70 L271.6,47.8 L284.8,28.42 L295.18,28.42 Z M324.94,28.42 L323.92,35.44 L309.28,35.44 L309.28,45.4 L322.06,45.4 L322.06,52.3 L309.28,52.3 L309.28,62.92 L324.94,62.92 L324.94,70 L299.44,70 L299.44,28.42 L324.94,28.42 Z M342.58,28.42 C353.68,28.42 364.18,31.84 364.18,49 C364.18,65.74 354.1,70 343.48,70 L331,70 L331,28.42 L342.58,28.42 Z M343.96,35.56 L340.84,35.56 L340.84,62.86 L344.08,62.86 C350.02,62.86 353.98,60.04 353.98,49 C353.98,37.84 349.72,35.56 343.96,35.56 Z M395.56,28.42 L394.54,35.44 L379.9,35.44 L379.9,45.4 L392.68,45.4 L392.68,52.3 L379.9,52.3 L379.9,62.92 L395.56,62.92 L395.56,70 L370.06,70 L370.06,28.42 L395.56,28.42 Z" id="path-1"></path>
            <filter x="-2.9%" y="-14.9%" width="105.8%" height="152.7%" filterUnits="objectBoundingBox" id="filter-2">
                <feOffset dx="0" dy="5" in="SourceAlpha" result="shadowOffsetOuter1"></feOffset>
                <feGaussianBlur stdDeviation="3" in="shadowOffsetOuter1" result="shadowBlurOuter1"></feGaussianBlur>
                <feColorMatrix values="0 0 0 0 0   0 0 0 0 0   0 0 0 0 0  0 0 0 0.273737981 0" type="matrix" in="shadowBlurOuter1"></feColorMatrix>
            </filter>
        </defs>
        <g id="Symbols" stroke="none" stroke-width="1" fill="none" fill-rule="evenodd">
            <g id="Logo" transform="translate(5.000000, -26.000000)" fill-rule="nonzero">
                <g id="SCHUBRAKEDE">
                    <use fill="black" fill-opacity="1" filter="url(#filter-2)" xlink:href="#path-1"></use>
                    <use fill="#FFFFFF" xlink:href="#path-1"></use>
                </g>
            </g>
        </g>
    </svg>