<?xml version="1.0" ?><!DOCTYPE svg  PUBLIC '-//W3C//DTD SVG 1.1//EN'  'http://www.w3.org/Graphics/SVG/1.1/DTD/svg11.dtd'><svg enable-background="new 0 0 96 96" height="96px" id="microphone" version="1.1" viewBox="0 0 96 96" width="96px" xml:space="preserve" xmlns="http://www.w3.org/2000/svg" xmlns:xlink="http://www.w3.org/1999/xlink"><path  fill="white"  d="M76,36c-2.209,0-4,1.791-4,4v8c0,13.255-10.745,24-24,24S24,61.255,24,48v-8c0-2.209-1.791-4-4-4s-4,1.791-4,4v8  c0,16.326,12.229,29.787,28.026,31.745C44.02,79.831,44,79.913,44,80v8H32c-2.209,0-4,1.791-4,4s1.791,4,4,4h32c2.209,0,4-1.791,4-4  s-1.791-4-4-4H52v-8c0-0.087-0.021-0.169-0.025-0.255C67.771,77.787,80,64.326,80,48v-8C80,37.791,78.209,36,76,36z"/><path  fill="white"  d="M64,15.917C64,7.126,56.874,0,48.083,0c-8.791,0-15.917,7.126-15.917,15.917c0,0.028,0.004,0.055,0.004,0.083H32v32  c0,8.837,7.164,16,16,16c8.837,0,16-7.163,16-16V16h-0.004C63.996,15.972,64,15.945,64,15.917z M56,48c0,4.418-3.582,8-8,8  c-4.418,0-8-3.582-8-8V16c0-4.418,3.582-8,8-8c4.418,0,8,3.582,8,8V48z"/></svg>