<?xml version="1.0" encoding="UTF-8"?>
<svg width="591px" height="126px" viewBox="0 0 591 126" version="1.1" xmlns="http://www.w3.org/2000/svg" xmlns:xlink="http://www.w3.org/1999/xlink">
    <!-- Generator: Sketch 52.1 (67048) - http://www.bohemiancoding.com/sketch -->
    <title>Schubrakede</title>
    <desc>Created with Sketch.</desc>
    <g id="Page-1" stroke="none" stroke-width="1" fill="none" fill-rule="evenodd">
        <g id="Desktop-HD-Copy" transform="translate(-425.000000, -352.000000)" fill="#FFFFFF">
            <path d="M464.778354,428.349897 C463.557683,427.240063 462.08173,426.390127 460.35045,425.800063 C458.619169,425.21 456.6891,425.028833 454.560185,425.256556 C452.904362,425.433675 451.475791,425.958601 450.274429,426.831351 C449.073067,427.704101 448.606986,428.901314 448.876174,430.423027 C449.091523,431.640398 449.820206,432.523753 451.062242,433.073119 C452.304279,433.622485 454.083902,434.145347 456.401163,434.641719 C459.282957,435.263767 461.890563,436.039168 464.224061,436.967946 C466.557559,437.896724 468.598077,439.042882 470.345678,440.406453 C472.093279,441.770025 473.538509,443.382985 474.681412,445.245381 C475.824315,447.107777 476.611105,449.256314 477.041805,451.691055 C477.773994,455.830114 477.511465,459.455319 476.254209,462.566778 C474.996952,465.678237 473.15494,468.294027 470.728116,470.414226 C468.301291,472.534425 465.507471,474.197698 462.346569,475.404095 C459.185668,476.610491 456.038147,477.381308 452.90391,477.716568 C450.420175,477.982246 447.898792,478.034883 445.339685,477.874481 C442.780578,477.714079 440.292695,477.360007 437.875961,476.812255 C435.459227,476.264502 433.143282,475.519922 430.928057,474.578492 C428.712833,473.637063 426.736833,472.515014 425,471.212311 L436.65722,456.382996 C437.517603,457.159247 438.509662,457.828372 439.633425,458.390389 C440.757189,458.952407 441.906445,459.403153 443.081227,459.742642 C444.256009,460.082131 445.429406,460.328733 446.601454,460.482454 C447.773502,460.636174 448.832603,460.662429 449.778787,460.561218 C451.848566,460.33982 453.442452,459.812715 454.560493,458.979889 C455.678534,458.147062 456.119106,457.061111 455.882221,455.722003 C455.688406,454.62637 454.998692,453.707837 453.813057,452.966376 C452.627423,452.224916 450.534604,451.549498 447.534538,450.940102 C445.15814,450.450055 442.893297,449.824047 440.739943,449.062061 C438.586589,448.300074 436.664384,447.311814 434.973271,446.097251 C433.282157,444.882688 431.853078,443.36103 430.68599,441.53223 C429.518902,439.703431 428.693102,437.419524 428.208565,434.68044 C427.616353,431.332671 427.732495,428.157261 428.556995,425.154113 C429.381494,422.150965 430.835066,419.468191 432.917754,417.105712 C435.000442,414.743233 437.636939,412.786692 440.827323,411.23603 C444.017708,409.685368 447.653057,408.691817 451.733478,408.255346 C453.980666,408.014971 456.233247,407.975582 458.491288,408.137178 C460.749328,408.298774 462.915982,408.625187 464.991314,409.116428 C467.066646,409.60767 469.018334,410.251669 470.846437,411.048447 C472.67454,411.845225 474.25804,412.792191 475.596984,413.889374 L464.778354,428.349897 Z M514.257292,438.128469 C513.73898,437.5726 512.916851,437.079804 511.790881,436.650066 C510.664911,436.220327 509.365907,436.084192 507.893833,436.241656 C504.8908,436.562881 502.681189,437.807885 501.264932,439.976705 C499.848676,442.145524 499.384656,444.609802 499.87286,447.369611 C500.191253,449.169487 501.078692,450.709793 502.535201,451.990576 C503.991711,453.271358 506.015361,453.773174 508.606213,453.496038 C510.078287,453.338575 511.367444,452.910309 512.47372,452.211228 C513.579997,451.512147 514.398607,450.797999 514.929576,450.06876 L525.194276,462.816903 C523.178576,464.988712 520.776832,466.758592 517.98897,468.126596 C515.201109,469.4946 511.86409,470.38644 507.977813,470.802144 C504.562599,471.167459 501.354291,471.006318 498.352791,470.318717 C495.351291,469.631115 492.685066,468.464471 490.354038,466.81875 C488.02301,465.173029 486.084675,463.11855 484.538975,460.655251 C482.993276,458.191952 481.933887,455.340457 481.360779,452.100681 C480.670926,448.20095 480.70744,444.422255 481.470323,440.764481 C482.233205,437.106708 483.644468,433.807544 485.704152,430.866891 C487.763837,427.926238 490.422158,425.487046 493.679197,423.549241 C496.936235,421.611437 500.684485,420.415805 504.92406,419.96231 C508.45704,419.584397 511.876742,419.753491 515.18327,420.469596 C518.489798,421.1857 521.182555,422.502332 523.261621,424.419529 L514.257292,438.128469 Z M557.36032,464.496511 L557.233725,438.82935 C557.255718,438.274722 557.230845,437.709774 557.159105,437.13449 C557.087365,436.559206 557.019536,436.090897 556.955615,435.729551 C556.742543,434.525063 556.245274,433.581104 555.46379,432.897647 C554.682307,432.214191 553.58433,431.948119 552.169827,432.099424 C550.814261,432.244425 549.729989,432.989378 548.916978,434.334305 C548.103968,435.679232 547.698931,437.548109 547.701856,439.940992 L547.812471,465.517817 L527.921118,467.645537 L527.598049,398.093675 L547.489401,395.965955 L547.630948,422.736063 L547.80776,422.71715 C548.91331,420.819337 550.51289,419.083476 552.606549,417.509516 C554.700207,415.935555 557.102566,415.003588 559.813697,414.713586 C562.406953,414.436193 564.671594,414.592811 566.607688,415.183445 C568.543782,415.774078 570.200972,416.655327 571.579308,417.827216 C572.957643,418.999105 574.046429,420.401377 574.845698,422.034073 C575.644968,423.66677 576.204397,425.386458 576.524004,427.193191 C576.694461,428.156781 576.828702,429.170253 576.926733,430.233637 C577.024764,431.297021 577.070601,432.319949 577.064245,433.302453 L577.251673,462.368791 L557.36032,464.496511 Z M635.005756,446.496003 C634.974968,447.679872 634.988777,449.200694 635.047183,451.058513 C635.105589,452.916333 635.205302,454.583302 635.346327,456.059471 L616.250629,458.102082 C616.147754,457.181053 616.050077,456.119678 615.957596,454.917927 C615.865115,453.716176 615.8023,452.68214 615.769151,451.815788 L615.415527,451.853614 C614.405161,453.950028 612.806497,455.860802 610.619485,457.585994 C608.432473,459.311186 605.865565,460.331377 602.918683,460.646596 C600.325427,460.923989 598.059916,460.762449 596.12208,460.161971 C594.184244,459.561493 592.524744,458.667183 591.143529,457.479012 C589.762313,456.290842 588.670212,454.869829 587.867192,453.21593 C587.064172,451.56203 586.500857,449.820382 586.177232,447.990932 C586.004632,447.015225 585.868146,445.98907 585.767771,444.912434 C585.667397,443.835798 585.619316,442.800186 585.623529,441.805566 L585.372606,412.380293 L605.263959,410.252573 L605.446614,436.236642 C605.425826,436.798086 605.451938,437.370038 605.524951,437.952516 C605.597963,438.534994 605.666831,439.009171 605.731556,439.375061 C605.947306,440.594694 606.446753,441.550957 607.229911,442.24388 C608.013068,442.936802 609.111883,443.207607 610.526386,443.056302 C611.881951,442.911301 612.96485,442.158586 613.775115,440.798135 C614.58538,439.437685 614.986431,437.54628 614.978282,435.123864 L614.900214,409.221811 L634.70316,407.103548 L635.005756,446.496003 Z M675.429546,402.297379 C678.504569,401.968453 681.302947,402.204731 683.824763,403.006221 C686.346579,403.807711 688.567847,405.039218 690.488632,406.700777 C692.409417,408.362337 693.98681,410.381968 695.22086,412.75973 C696.45491,415.137493 697.321668,417.738144 697.821159,420.561763 C698.5332,424.586922 698.554902,428.456315 697.886265,432.170057 C697.217628,435.883799 695.949216,439.187244 694.080989,442.080489 C692.212763,444.973734 689.834979,447.370529 686.947568,449.270946 C684.060156,451.171362 680.753744,452.320807 677.028235,452.719313 C674.012346,453.041914 671.191214,452.76216 668.564754,451.880043 C665.938294,450.997926 663.839452,449.692111 662.268164,447.96256 L662.090759,447.981536 L662.096441,453.122861 L644.178604,455.03948 L643.924495,385.650575 L663.793779,383.525215 L663.935828,408.852401 L664.113233,408.833425 C665.25616,407.119611 666.851363,405.663507 668.898888,404.465068 C670.946414,403.26663 673.123278,402.544074 675.429546,402.297379 Z M678.812836,425.680749 C678.475492,423.773748 677.603831,422.227533 676.197826,421.042057 C674.791822,419.856582 672.972039,419.383313 670.738423,419.622236 C669.421162,419.76314 668.282856,420.173324 667.323469,420.8528 C666.364082,421.532276 665.579513,422.375206 664.969739,423.381614 C664.359966,424.388022 663.951005,425.539917 663.742845,426.837333 C663.534686,428.13475 663.551839,429.468767 663.794305,430.839424 C664.142191,432.806019 665.016487,434.367132 666.41722,435.522811 C667.817953,436.67849 669.606465,437.139923 671.782809,436.907126 C673.157342,436.760096 674.341238,436.360216 675.334532,435.707473 C676.327826,435.054731 677.126712,434.21027 677.731215,433.174065 C678.335718,432.13786 678.730361,430.987496 678.915155,429.72294 C679.09995,428.458384 679.065843,427.111 678.812836,425.680749 Z M704.711959,410.042583 C704.746707,408.880231 704.73797,407.387157 704.685747,405.563318 C704.633525,403.739478 704.539346,402.103094 704.403208,400.654116 L723.422648,398.619662 C723.475583,398.918904 723.514911,399.311067 723.540632,399.796162 C723.566353,400.281258 723.58527,400.812809 723.597384,401.390831 C723.609498,401.968853 723.618965,402.531905 723.625785,403.080003 L723.642836,404.450241 L723.908223,404.421853 C724.92587,402.361612 726.293955,400.584058 728.012519,399.089141 C729.731083,397.594223 731.917276,396.704838 734.571165,396.420959 C736.163498,396.250632 737.428428,396.267776 738.365993,396.472391 L737.667857,413.926523 C737.046343,413.810062 736.346963,413.762913 735.569697,413.785074 C734.792431,413.807235 734.079445,413.853011 733.430716,413.922403 C730.364,414.250441 728.121106,415.328831 726.701966,417.157606 C725.282825,418.98638 724.562713,421.030011 724.541606,423.28856 L724.610313,446.606268 L704.79471,448.725885 L704.711959,410.042583 Z M769.823269,422.326706 L768.694058,422.447494 C767.246344,422.602352 765.900962,422.835248 764.657871,423.146189 C763.414781,423.45713 762.348979,423.852919 761.460433,424.333569 C760.571887,424.814218 759.892154,425.391172 759.421211,426.064446 C758.950268,426.737721 758.797194,427.540123 758.961984,428.471676 C759.198869,429.810784 759.770612,430.624638 760.677232,430.913264 C761.583852,431.20189 762.529371,431.29355 763.513817,431.188247 C765.424799,430.983835 766.95255,430.197525 768.097115,428.829296 C769.24168,427.461066 769.817741,425.797729 769.825314,423.839235 L769.823269,422.326706 Z M787.719465,432.136521 C787.719932,433.486193 787.798805,434.858133 787.956087,436.252382 C788.113369,437.646631 788.261241,438.735116 788.399708,439.517867 L771.561763,441.318973 C771.487204,440.897491 771.381995,440.218557 771.246132,439.282149 C771.11027,438.345741 771.018316,437.573364 770.970269,436.964993 L770.794873,436.983755 C769.45087,439.152102 767.774506,440.788482 765.765731,441.892945 C763.756956,442.997407 761.437132,443.69034 758.80619,443.971764 C757.169159,444.146873 755.489549,444.081135 753.767308,443.77455 C752.045067,443.467965 750.438362,442.888291 748.947144,442.035511 C747.455927,441.182731 746.15995,440.00233 745.059175,438.494275 C743.958401,436.98622 743.210975,435.118305 742.816877,432.890473 C742.167148,429.217561 742.435815,426.105981 743.622887,423.555638 C744.809958,421.005296 746.640297,418.89232 749.113957,417.216646 C751.587617,415.540973 754.557003,414.226408 758.022204,413.272911 C761.487405,412.319414 765.17854,411.633171 769.095721,411.214161 C769.111581,410.967061 769.106197,410.768249 769.079569,410.61772 L769.007673,410.211293 C768.794647,409.00706 768.120652,408.143566 766.98567,407.620786 C765.850687,407.098006 764.464701,406.924173 762.82767,407.099282 C760.956778,407.299406 759.210948,407.86959 757.590128,408.809852 C755.969308,409.750114 754.539941,410.930623 753.301984,412.351415 L742.918207,403.155219 C744.076396,401.620258 745.453868,400.230575 747.050664,398.986127 C748.647461,397.74168 750.317372,396.658141 752.060448,395.735477 C753.803525,394.812813 755.607761,394.067668 757.473211,393.500021 C759.338661,392.932373 761.148339,392.554746 762.9023,392.36713 C769.918146,391.616666 775.452857,392.512374 779.506601,395.05428 C783.560344,397.596187 786.055836,401.516395 786.99315,406.815022 C787.387248,409.042854 787.595412,411.566616 787.617649,414.386384 L787.719465,432.136521 Z M815.013987,415.857625 L815.262973,436.909417 L795.674512,439.004738 L795.224092,369.466498 L814.900002,367.361824 L814.966508,407.026333 L815.228853,406.99827 L824.959199,387.456292 L848.832637,384.90262 L833.938826,409.50715 L849.717678,433.223898 L826.806174,435.674675 L815.276333,415.829562 L815.013987,415.857625 Z M868.980917,411.371656 C868.954147,411.557913 868.961988,411.77103 869.00444,412.011013 C869.184863,413.030943 869.594532,413.827662 870.233459,414.401194 C870.872385,414.974727 871.607295,415.415722 872.438208,415.724194 C873.269122,416.032666 874.137406,416.214874 875.043087,416.270824 C875.948768,416.326774 876.753256,416.317133 877.456575,416.241901 C878.921822,416.085167 880.312637,415.676593 881.629063,415.016164 C882.945488,414.355735 884.06496,413.426014 884.987512,412.226971 L899.918222,420.166282 C897.433004,423.672068 894.338448,426.264901 890.634461,427.944859 C886.930475,429.624817 882.968585,430.690475 878.748674,431.141867 C875.466521,431.492949 872.265994,431.376824 869.146998,430.793487 C866.028002,430.21015 863.210415,429.13611 860.694151,427.571334 C858.177886,426.006558 856.038936,423.958256 854.277234,421.426365 C852.515533,418.894475 851.316307,415.8287 850.679519,412.228948 C849.96844,408.209226 850.005785,404.369312 850.791554,400.70909 C851.577324,397.048868 853.01677,393.792538 855.109935,390.94 C857.203101,388.087462 859.892581,385.736632 863.178458,383.88744 C866.464334,382.038247 870.246476,380.884837 874.524997,380.427176 C877.92437,380.063555 881.059595,380.232514 883.930766,380.934056 C886.801937,381.635599 889.337093,382.80098 891.53631,384.430235 C893.735526,386.05949 895.578778,388.12414 897.066122,390.624247 C898.553466,393.124353 899.583677,395.994252 900.156785,399.234028 C900.390274,400.553937 900.542419,402.004787 900.613226,403.586622 C900.684033,405.168457 900.631046,406.641249 900.454266,408.005044 L868.980917,411.371656 Z M883.090533,398.95421 C883.11758,398.768033 883.112542,398.570018 883.075419,398.360157 L882.987913,397.86549 C882.722743,396.366489 881.966091,395.225552 880.717933,394.442644 C879.469775,393.659737 877.8744,393.372187 875.93176,393.579985 C874.695534,393.712221 873.628901,394.040143 872.731828,394.563763 C871.834755,395.087382 871.086056,395.686765 870.48571,396.361928 C869.885363,397.037092 869.425431,397.743047 869.105899,398.479814 C868.786368,399.216582 868.591338,399.894201 868.520802,400.512692 L883.090533,398.95421 Z M927.852643,425.889359 C924.803757,426.215489 922.028375,425.976751 919.526414,425.173137 C917.024452,424.369524 914.819898,423.136229 912.912684,421.473218 C911.005471,419.810207 909.438256,417.789487 908.210991,415.410999 C906.983727,413.03251 906.120362,410.431496 905.620871,407.607877 C904.90883,403.582718 904.881599,399.713917 905.539178,396.001358 C906.196756,392.288798 907.435055,388.988575 909.25411,386.100589 C911.073166,383.212604 913.427577,380.818309 916.317413,378.917633 C919.20725,377.016957 922.49904,375.869077 926.192882,375.473957 C927.306899,375.354794 928.471468,375.352649 929.686627,375.467522 C930.901785,375.582396 932.076891,375.808672 933.211981,376.146358 C934.347071,376.484044 935.412794,376.936266 936.409182,377.503037 C937.405571,378.069808 938.236677,378.715461 938.902526,379.440016 L939.078423,379.421201 L938.900183,354.097886 L958.512631,352 L958.867018,421.378179 L941.189431,423.269099 L941.176209,418.128581 L941.000313,418.147396 C939.970591,420.093956 938.34275,421.783099 936.11674,423.214878 C933.89073,424.646657 931.136059,425.538141 927.852643,425.889359 Z M924.707283,402.930324 C925.044627,404.837325 925.916288,406.383541 927.322292,407.569016 C928.728296,408.754492 930.548079,409.227761 932.781695,408.988837 C934.098956,408.847934 935.239898,408.452648 936.204556,407.802968 C937.169214,407.153289 937.953783,406.310359 938.558286,405.274154 C939.162788,404.237949 939.569114,403.071156 939.777273,401.77374 C939.985433,400.476323 939.96828,399.142307 939.725814,397.771649 C939.377928,395.805054 938.503632,394.243941 937.102898,393.088262 C935.702165,391.932584 933.913653,391.47115 931.73731,391.703947 C930.362777,391.850977 929.178881,392.250857 928.185587,392.9036 C927.192293,393.556343 926.393406,394.400804 925.788904,395.437009 C925.184401,396.473214 924.789758,397.623577 924.604963,398.888133 C924.420169,400.15269 924.454275,401.500073 924.707283,402.930324 Z M984.290773,399.037297 C984.264002,399.223554 984.271843,399.436671 984.314296,399.676654 C984.494719,400.696584 984.904388,401.493303 985.543314,402.066836 C986.182241,402.640368 986.91715,403.081364 987.748064,403.389836 C988.578978,403.698307 989.447262,403.880515 990.352943,403.936465 C991.258624,403.992415 992.063112,403.982774 992.76643,403.907542 C994.231677,403.750809 995.622493,403.342234 996.938918,402.681805 C998.255344,402.021377 999.374816,401.091655 1000.29737,399.892612 L1015.22808,407.831924 C1012.74286,411.337709 1009.6483,413.930542 1005.94432,415.6105 C1002.24033,417.290458 998.278441,418.356117 994.05853,418.807508 C990.776376,419.158591 987.57585,419.042465 984.456854,418.459128 C981.337858,417.875792 978.52027,416.801751 976.004006,415.236975 C973.487742,413.672199 971.348791,411.623897 969.58709,409.092007 C967.825389,406.560116 966.626162,403.494341 965.989375,399.89459 C965.278296,395.874867 965.31564,392.034953 966.10141,388.374731 C966.887179,384.71451 968.326625,381.458179 970.419791,378.605641 C972.512956,375.753104 975.202437,373.402274 978.488313,371.553081 C981.77419,369.703888 985.556332,368.550479 989.834853,368.092818 C993.234226,367.729197 996.369451,367.898155 999.240622,368.599697 C1002.11179,369.30124 1004.64695,370.466621 1006.84617,372.095877 C1009.04538,373.725132 1010.88863,375.789782 1012.37598,378.289888 C1013.86332,380.789995 1014.89353,383.659893 1015.46664,386.899669 C1015.70013,388.219578 1015.85227,389.670428 1015.92308,391.252263 C1015.99389,392.834098 1015.9409,394.306891 1015.76412,395.670685 L984.290773,399.037297 Z M998.400389,386.619852 C998.427436,386.433675 998.422398,386.235659 998.385274,386.025799 C998.348151,385.815939 998.318982,385.651051 998.297769,385.531131 C998.032599,384.03213 997.275947,382.891193 996.027789,382.108285 C994.779631,381.325378 993.184256,381.037828 991.241615,381.245626 C990.005389,381.377862 988.938756,381.705785 988.041683,382.229404 C987.144611,382.753024 986.395912,383.352406 985.795565,384.02757 C985.195218,384.702733 984.735286,385.408688 984.415755,386.145455 C984.096224,386.882223 983.901193,387.559842 983.830657,388.178333 L998.400389,386.619852 Z" id="Schubrakede"></path>
        </g>
    </g>
</svg>