<?xml version="1.0" encoding="UTF-8"?>
<svg width="63px" height="56px" viewBox="0 0 63 56" version="1.1" xmlns="http://www.w3.org/2000/svg" xmlns:xlink="http://www.w3.org/1999/xlink">
    <!-- Generator: Sketch 52.2 (67145) - http://www.bohemiancoding.com/sketch -->
    <title>Shape</title>
    <desc>Created with Sketch.</desc>
    <g id="Page-1" stroke="none" stroke-width="1" fill="none" fill-rule="evenodd">
        <g id="Desktop-HD-Copy" transform="translate(-544.000000, -1586.000000)" fill="#FFFFFF" fill-rule="nonzero">
            <g id="Group-5" transform="translate(544.000000, 1586.000000)">
                <g id="if_07.Wallet_290143">
                    <path d="M63,49.1697305 C63,52.9427714 59.934913,56 56.1521739,56 L6.84782609,56 C3.06508696,56 0,52.9427714 0,49.1697305 L0,9.55416712 C0,6.53655403 2.4528913,4.08995148 5.47826087,4.08995148 L33.1037609,4.08995148 L44.1958696,0.0819493149 C44.8984565,-0.173502766 45.6763696,0.18850152 45.9324783,0.886555067 L47.1007174,4.08995148 L52.0434783,4.08995148 C55.0688478,4.08995148 57.5217391,6.53655403 57.5217391,9.55416712 L57.5217391,12.2862749 C60.5471087,12.2862749 63,14.7328775 63,17.7504906 L63,49.1697305 Z M5.76276276,7 C4.23771772,7 3,8.12 3,9.5 C3,10.88 4.23771772,12 5.76276276,12 L10.5216216,12 L10.7827027,12 C10.8006607,11.99375 10.8117117,11.98 10.8296697,11.97375 L26,7 L5.76276276,7 Z M45.0888804,6.90271393 L43.6266262,3 L43.6252493,3 L40.8012534,3.99169509 L40.8053841,3.99169509 L33.2132276,6.66113006 L33.1994587,6.66113006 L18,12 L47,12 L45.0888804,6.90271393 Z M55,9.5 C55,8.12 53.7155437,7 52.1329101,7 L48,7 L50.0843744,12 L55,12 L55,9.5 Z M58.2380952,14.7580109 L5.76190476,14.7580109 C4.75104762,14.7580109 3.8147619,14.4698302 3,14 L3,48.902644 C3,51.1657503 4.856,53 7.14285714,53 L56.8571429,53 C59.145381,53 61,51.1657503 61,48.902644 L61,39.3421467 L55.4761905,39.3421467 C52.4256667,39.3421467 49.952381,36.8960252 49.952381,33.8790054 C49.952381,30.8619856 52.4256667,28.4158641 55.4761905,28.4158641 L61,28.4158641 L61,17.4895815 C61,15.9817545 59.7626667,14.7580109 58.2380952,14.7580109 Z M60,37 L60,32 L54.6666667,32 C53.1946667,32 52,33.12 52,34.5 C52,35.88 53.1946667,37 54.6666667,37 L60,37 Z M55,33 L58,33 L58,36 L55,36 L55,33 Z" id="Shape"></path>
                </g>
            </g>
        </g>
    </g>
</svg>