<?xml version="1.0" encoding="utf-8"?>
<!-- Generator: Adobe Illustrator 23.0.0, SVG Export Plug-In . SVG Version: 6.00 Build 0)  -->
<svg version="1.1" id="Layer_1" xmlns:sketch="http://www.bohemiancoding.com/sketch/ns"
	 xmlns="http://www.w3.org/2000/svg" xmlns:xlink="http://www.w3.org/1999/xlink" x="0px" y="0px" viewBox="0 0 38.3 27"
	 style="enable-background:new 0 0 38.3 27;" xml:space="preserve">
<style type="text/css">
	.st0{fill-rule:evenodd;clip-rule:evenodd;fill:#FFFFFF;}
</style>
<title></title>
<desc></desc>
<g id="black">
	<g id="slice" transform="translate(-500.000000, -100.000000)">
	</g>
	<g id="youtube" transform="translate(10.000000, 16.000000)">
		<path id="Fill-195" class="st0" d="M28-10.2c0,0-0.4-2.6-1.5-3.8c-1.5-1.5-3.1-1.5-3.8-1.6C17.2-16,9.2-16,9.2-16h0
			c0,0-8,0-13.4,0.4C-5-15.5-6.6-15.5-8.1-14c-1.2,1.2-1.5,3.8-1.5,3.8S-10-7.1-10-4v2.9c0,3.1,0.4,6.2,0.4,6.2s0.4,2.6,1.5,3.8
			c1.5,1.5,3.4,1.5,4.2,1.6c3.1,0.3,13,0.4,13,0.4s8.1,0,13.4-0.4c0.7-0.1,2.4-0.1,3.8-1.6C27.6,7.8,28,5.1,28,5.1s0.4-3.1,0.4-6.2
			V-4C28.3-7.1,28-10.2,28-10.2z M5.2,2.5l0-10.8l10.4,5.4L5.2,2.5z"/>
	</g>
</g>
</svg>
